<svg xmlns="http://www.w3.org/2000/svg" xmlns:svg="http://www.w3.org/2000/svg" xmlns:xlink="http://www.w3.org/1999/xlink" version="1.0" height="484.9940299987793pt" width="789.9815368652344pt" viewBox="400 401.9 797.9815368652344 490.9940299987793" ><defs><style type="text/css">
            @font-face {
                font-family: 'noto_regular';
                src: url('https://app.creately.com/diagram/assets/fonts/noto/noto-regular.woff') format('woff'),
                     url('https://app.creately.com/diagram/assets/fonts/noto/noto-regular.woff2') format('woff2');
                font-weight: normal;
                font-style: normal;
            }
        p {
            margin: 0;
        }
        </style></defs><defs><style>
            span{ display: inline-block; }
        </style></defs><g id="1s77qrep1g"><g transform="translate(405 404.9)"><path d="M 2.4686923027038574,2.694411277770996 L 787.5128445625305,2.694411277770996 L 787.5128445625305,482.2996187210083 L 2.4686923027038574,482.2996187210083 Z" fill="rgb(235, 235, 235)" stroke="rgb(235, 235, 235)" stroke-width="2" vector-effect="non-scaling-stroke" stroke-dasharray=""/></g></g><g id="6oi27edgiz"><g transform="translate(465 635)"><ellipse cx="20.5" cy="10.125" rx="10.25" ry="10.125" fill="rgba(38,38,38,1)" stroke="#262626" stroke-width="2" stroke-linecap="round" stroke-linejoin="round"/><path d="M 20.5,20.25 L 20.5,48.6 L 41,81 M 20.5,48.6 L 0,81 M 2.0500000000000003,30.375 L 38.95,30.375" fill="none" stroke="#262626" stroke-width="2" stroke-linecap="round" stroke-linejoin="round"/><rect x="0" y="0" width="41" height="81" fill="rgba(255,255,255,0.01)" stroke="rgba(255,255,255,0.01)" stroke-width="2" stroke-linecap="round" stroke-linejoin="round"/></g><g transform="translate(472, 721) rotate(0, 13.5, 0)" width="27" height="34"><text text-decoration="none" x="0" fill="rgb(0, 0, 0)" font-size="9pt" font-family="Arial"  y="13">User</text><text text-decoration="none" x="27" fill="rgb(0, 0, 0)" font-size="9pt" font-family="Arial"  y="13"></text><text text-decoration="none" x="13.5" fill="#4b4b4b" font-size="10pt" font-family="noto_regular"  y="35"></text></g></g><g id="269tnj8fsu"><g transform="translate(630 565)"><ellipse cx="45.5" cy="30.5" rx="45.5" ry="30.5" fill="rgba(48,172,226,1)" stroke="#30ace2" stroke-width="2" stroke-linecap="round" stroke-linejoin="round"/></g><g transform="translate(659, 586) rotate(0, 16.5, 9.5)" width="33" height="19"><text text-decoration="none" x="1.5" fill="rgb(255, 255, 255)" font-size="9pt" font-family="Arial"  y="17">Login</text><text text-decoration="none" x="31.5" fill="#4b4b4b" font-size="10pt" font-family="noto_regular"  y="17"></text></g></g><g id="2op6d5hq62"><g transform="translate(630 700)"><ellipse cx="45.5" cy="30.5" rx="45.5" ry="30.5" fill="rgba(48,172,226,1)" stroke="#30ace2" stroke-width="2" stroke-linecap="round" stroke-linejoin="round"/></g><g transform="translate(651.5, 721) rotate(0, 24, 9.5)" width="48" height="19"><text text-decoration="none" x="2.5" fill="rgb(255, 255, 255)" font-size="9pt" font-family="Arial"  y="17">Sign&#160;</text><text text-decoration="none" x="29.5" fill="rgb(255, 255, 255)" font-size="9pt" font-family="Arial"  y="17">Up</text><text text-decoration="none" x="45.5" fill="#4b4b4b" font-size="10pt" font-family="noto_regular"  y="17"></text></g></g><g id="3m4k3j67jv"><g><path d="M 505,665 L 635,715" fill="none" stroke="#898989" stroke-width="1.5" stroke-linecap="round" stroke-linejoin="round"/><path d="M 635,715 L 628.9480809564342,706.511705552951 L 624.8198215443822,717.2451800242861 Z" fill="rgb(137,137,137)" stroke="#898989" stroke-width="1.5" stroke-linecap="round" stroke-linejoin="round"/></g></g><g id="10ip4ax02g"><mask id="3bda5" x="662" y="612" width="26" height="101" maskUnits="userSpaceOnUse"><rect x="662" y="612" width="26" height="101" fill="white" /><rect x="631" y="650" width="88" height="25" fill="black" /><rect x="631" y="650" width="88" height="25" fill="black" /></mask><g mask="url(#3bda5)"><path d="M 675,700 L 675,625" fill="none" stroke="#898989" stroke-width="1.5" stroke-linecap="round" stroke-linejoin="round"/><path d="M 675,625 L 669.25,633.695652173913 L 680.75,633.695652173913 Z" fill="rgb(137,137,137)" stroke="#898989" stroke-width="1.5" stroke-linecap="round" stroke-linejoin="round"/></g><g transform="translate(634, 653)" width="82" height="19"><text text-decoration="none" x="8" fill="rgb(0, 0, 0)" font-size="9pt" font-family="Arial"  y="17">&#x3C;&#x3C;extend&#x3E;&#x3E;</text><text text-decoration="none" x="74" fill="#4b4b4b" font-size="10pt" font-family="noto_regular"  y="17"></text></g><g transform="translate(634, 653)" width="82" height="19"><text text-decoration="none" x="8" fill="rgb(0, 0, 0)" font-size="9pt" font-family="Arial"  y="17">&#x3C;&#x3C;extend&#x3E;&#x3E;</text><text text-decoration="none" x="74" fill="#4b4b4b" font-size="10pt" font-family="noto_regular"  y="17"></text></g></g><g id="4686m6w8wp"><g transform="translate(630 800)"><ellipse cx="45.5" cy="30.5" rx="45.5" ry="30.5" fill="rgba(48,172,226,1)" stroke="#30ace2" stroke-width="2" stroke-linecap="round" stroke-linejoin="round"/></g><g transform="translate(661, 821) rotate(0, 14.5, 9.5)" width="29" height="19"><text text-decoration="none" x="0.5" fill="rgb(255, 255, 255)" font-size="9pt" font-family="Arial"  y="17">Read</text><text text-decoration="none" x="28.5" fill="#4b4b4b" font-size="10pt" font-family="noto_regular"  y="17"></text></g></g><g id="7fdglo6w12"><g transform="translate(840 800)"><ellipse cx="45.5" cy="30.5" rx="45.5" ry="30.5" fill="rgba(48,172,226,1)" stroke="#30ace2" stroke-width="2" stroke-linecap="round" stroke-linejoin="round"/></g><g transform="translate(850.5, 821) rotate(0, 35, 9.5)" width="70" height="19"><text text-decoration="none" x="3.5" fill="rgb(255, 255, 255)" font-size="10pt" font-family="Lato"  y="17">Categories</text><text text-decoration="none" x="66.5" fill="#4b4b4b" font-size="10pt" font-family="noto_regular"  y="17"></text></g></g><g id="676vx6waj2"><g transform="translate(850 495)"><ellipse cx="45.5" cy="30.5" rx="45.5" ry="30.5" fill="rgba(48,172,226,1)" stroke="#30ace2" stroke-width="2" stroke-linecap="round" stroke-linejoin="round"/></g><g transform="translate(854.5, 516) rotate(0, 41, 9.5)" width="82" height="19"><text text-decoration="none" x="1.5" fill="rgb(255, 255, 255)" font-size="9pt" font-family="Arial"  y="17">Manage&#160;</text><text text-decoration="none" x="50.5" fill="rgb(255, 255, 255)" font-size="9pt" font-family="Arial"  y="17">Posts</text><text text-decoration="none" x="80.5" fill="#4b4b4b" font-size="10pt" font-family="noto_regular"  y="17"></text></g></g><g id="2cfkvjmjn7"><g transform="translate(850 625)"><ellipse cx="45.5" cy="30.5" rx="45.5" ry="30.5" fill="rgba(48,172,226,1)" stroke="#30ace2" stroke-width="2" stroke-linecap="round" stroke-linejoin="round"/></g><g transform="translate(864, 638.5) rotate(0, 31.5, 17)" width="63" height="34"><text text-decoration="none" x="8.5" fill="rgb(255, 255, 255)" font-size="9pt" font-family="Arial"  y="13">Manage&#160;</text><text text-decoration="none" x="1" fill="rgb(255, 255, 255)" font-size="9pt" font-family="Arial"  y="35">Categories</text><text text-decoration="none" x="62" fill="#4b4b4b" font-size="10pt" font-family="noto_regular"  y="35"></text></g></g><g id="1q1f9oqgl2"><g transform="translate(1020 430)"><ellipse cx="45.5" cy="30.5" rx="45.5" ry="30.5" fill="rgba(48,172,226,1)" stroke="#30ace2" stroke-width="2" stroke-linecap="round" stroke-linejoin="round"/></g><g transform="translate(1039, 451) rotate(0, 26.5, 9.5)" width="53" height="19"><text text-decoration="none" x="2" fill="rgb(255, 255, 255)" font-size="9pt" font-family="Arial"  y="17">Add&#160;</text><text text-decoration="none" x="27" fill="rgb(255, 255, 255)" font-size="9pt" font-family="Arial"  y="17">Post</text><text text-decoration="none" x="51" fill="#4b4b4b" font-size="10pt" font-family="noto_regular"  y="17"></text></g></g><g id="4y5xy7nttg"><g transform="translate(1020 495)"><ellipse cx="45.5" cy="30.5" rx="45.5" ry="30.5" fill="rgba(48,172,226,1)" stroke="#30ace2" stroke-width="2" stroke-linecap="round" stroke-linejoin="round"/></g><g transform="translate(1039, 516) rotate(0, 26.5, 9.5)" width="53" height="19"><text text-decoration="none" x="2.5" fill="rgb(255, 255, 255)" font-size="9pt" font-family="Arial"  y="17">Edit&#160;</text><text text-decoration="none" x="26.5" fill="rgb(255, 255, 255)" font-size="9pt" font-family="Arial"  y="17">Post</text><text text-decoration="none" x="50.5" fill="#4b4b4b" font-size="10pt" font-family="noto_regular"  y="17"></text></g></g><g id="58o7q9j7fm"><g><path d="M 715,580 L 855,540" fill="none" stroke="#898989" stroke-width="1.5" stroke-linecap="round" stroke-linejoin="round"/><path d="M 855,540 L 845.0592757090177,536.8601166740859 L 848.2185686798375,547.9176420719555 Z" fill="rgb(137,137,137)" stroke="#898989" stroke-width="1.5" stroke-linecap="round" stroke-linejoin="round"/></g></g><g id="10mh37dn6j"><g><path d="M 720,595 L 855,640" fill="none" stroke="#898989" stroke-width="1.5" stroke-linecap="round" stroke-linejoin="round"/><path d="M 855,640 L 848.5688896715488,631.7952643751936 L 844.9322703623552,642.7051223027745 Z" fill="rgb(137,137,137)" stroke="#898989" stroke-width="1.5" stroke-linecap="round" stroke-linejoin="round"/></g></g><g id="19bhzucra0"><g><path d="M 505,665 L 635,610" fill="none" stroke="#898989" stroke-width="2" stroke-linecap="round" stroke-linejoin="round"/><path d="M 635,610 L 624.751159173832,608.0926121397184 L 629.232019068454,618.6837355270068 Z" fill="rgb(137,137,137)" stroke="#898989" stroke-width="2" stroke-linecap="round" stroke-linejoin="round"/></g></g><g id="1wbbyd22ag"><g><path d="M 935,510 L 1025,475" fill="none" stroke="#898989" stroke-width="1.5" stroke-linecap="round" stroke-linejoin="round"/><path d="M 1025,475 L 1014.8115455501738,472.7926797573762 L 1018.9796775534558,483.5107334801011 Z" fill="rgb(137,137,137)" stroke="#898989" stroke-width="1.5" stroke-linecap="round" stroke-linejoin="round"/></g></g><g id="v0d6lilgsy"><g><path d="M 940,525 L 1020,525" fill="none" stroke="#898989" stroke-width="1.5" stroke-linecap="round" stroke-linejoin="round"/><path d="M 1020,525 L 1011.304347826087,519.25 L 1011.304347826087,530.75 Z" fill="rgb(137,137,137)" stroke="#898989" stroke-width="1.5" stroke-linecap="round" stroke-linejoin="round"/></g></g><g id="1j9q4vae13"><g transform="translate(1020 560)"><ellipse cx="45.5" cy="30.5" rx="45.5" ry="30.5" fill="rgba(48,172,226,1)" stroke="#30ace2" stroke-width="2" stroke-linecap="round" stroke-linejoin="round"/></g><g transform="translate(1032, 581) rotate(0, 33.5, 9.5)" width="67" height="19"><text text-decoration="none" x="1.5" fill="rgb(255, 255, 255)" font-size="9pt" font-family="Arial"  y="17">Delete&#160;</text><text text-decoration="none" x="41.5" fill="rgb(255, 255, 255)" font-size="9pt" font-family="Arial"  y="17">Post</text><text text-decoration="none" x="65.5" fill="#4b4b4b" font-size="10pt" font-family="noto_regular"  y="17"></text></g></g><g id="5pz06sesbx"><g><path d="M 935,540 L 1025,575" fill="none" stroke="#898989" stroke-width="1.5" stroke-linecap="round" stroke-linejoin="round"/><path d="M 1025,575 L 1018.9796775534558,566.4892665198988 L 1014.8115455501738,577.2073202426237 Z" fill="rgb(137,137,137)" stroke="#898989" stroke-width="1.5" stroke-linecap="round" stroke-linejoin="round"/></g></g><g id="1q2tlcdz5u"><g transform="translate(1020 625)"><ellipse cx="45.5" cy="30.5" rx="45.5" ry="30.5" fill="rgba(48,172,226,1)" stroke="#30ace2" stroke-width="2" stroke-linecap="round" stroke-linejoin="round"/></g><g transform="translate(1038.5, 638.5) rotate(0, 27, 17)" width="54" height="34"><text text-decoration="none" x="8.5" fill="rgb(255, 255, 255)" font-size="9pt" font-family="Arial"  y="13">Delete&#160;</text><text text-decoration="none" x="1.5" fill="rgb(255, 255, 255)" font-size="9pt" font-family="Arial"  y="35">Category</text><text text-decoration="none" x="52.5" fill="#4b4b4b" font-size="10pt" font-family="noto_regular"  y="35"></text></g></g><g id="2nvf7h3vz8"><g transform="translate(1020 690)"><ellipse cx="45.5" cy="30.5" rx="45.5" ry="30.5" fill="rgba(48,172,226,1)" stroke="#30ace2" stroke-width="2" stroke-linecap="round" stroke-linejoin="round"/></g><g transform="translate(1024.5, 711) rotate(0, 41, 9.5)" width="82" height="19"><text text-decoration="none" x="3" fill="rgb(255, 255, 255)" font-size="9pt" font-family="Arial"  y="17">Add&#160;</text><text text-decoration="none" x="28" fill="rgb(255, 255, 255)" font-size="9pt" font-family="Arial"  y="17">Category</text><text text-decoration="none" x="79" fill="#4b4b4b" font-size="10pt" font-family="noto_regular"  y="17"></text></g></g><g id="3m5y0vo877"><g><path d="M 940,655 L 1020,655" fill="none" stroke="#898989" stroke-width="1.5" stroke-linecap="round" stroke-linejoin="round"/><path d="M 1020,655 L 1011.304347826087,649.25 L 1011.304347826087,660.75 Z" fill="rgb(137,137,137)" stroke="#898989" stroke-width="1.5" stroke-linecap="round" stroke-linejoin="round"/></g></g><g id="1nc3dm1yp9"><g><path d="M 935,670 L 1025,705" fill="none" stroke="#898989" stroke-width="1.5" stroke-linecap="round" stroke-linejoin="round"/><path d="M 1025,705 L 1018.9796775534558,696.4892665198988 L 1014.8115455501738,707.2073202426237 Z" fill="rgb(137,137,137)" stroke="#898989" stroke-width="1.5" stroke-linecap="round" stroke-linejoin="round"/></g></g><g id="et1v7q5afq"><g><path d="M 505,665 L 635,815" fill="none" stroke="#898989" stroke-width="2" stroke-linecap="round" stroke-linejoin="round"/><path d="M 635,815 L 633.6501640658863,804.6629399885338 L 624.9597396138034,812.194641180339 Z" fill="rgb(137,137,137)" stroke="#898989" stroke-width="2" stroke-linecap="round" stroke-linejoin="round"/></g></g><g id="2jxy2aml4q"><mask id="b0045" x="707" y="817" width="146" height="26" maskUnits="userSpaceOnUse"><rect x="707" y="817" width="146" height="26" fill="white" /><rect x="754.5" y="817.5" width="51" height="25" fill="black" /></mask><g mask="url(#b0045)"><path d="M 720,830 L 840,830" fill="none" stroke="#898989" stroke-width="1.5" stroke-linecap="round" stroke-linejoin="round" stroke-dasharray="5 5"/><path d="M 840,830 L 831.304347826087,824.25 L 831.304347826087,835.75 Z" fill="rgb(137,137,137)" stroke="#898989" stroke-width="1.5" stroke-linecap="round" stroke-linejoin="round"/></g><g transform="translate(757.5, 820.5)" width="45" height="19"><text text-decoration="none" x="1.5" fill="rgb(75, 75, 75)" font-size="10pt" font-family="Lato"  y="17">sort&#160;</text><text text-decoration="none" x="28.5" fill="rgb(75, 75, 75)" font-size="10pt" font-family="Lato"  y="17">by</text><text text-decoration="none" x="43.5" fill="#4b4b4b" font-size="10pt" font-family="noto_regular"  y="17"></text></g></g></svg>